<mxfile host="app.diagrams.net" modified="2021-02-01T09:21:51.521Z" agent="5.0 (Windows)" etag="44OH6GuX9HEFDw6rQzbT" version="14.2.9" type="github">
  <diagram id="wSXU5I3lGnjunX10phB6" name="Page-1">
    <mxGraphModel dx="1422" dy="747" grid="1" gridSize="10" guides="1" tooltips="1" connect="1" arrows="1" fold="1" page="1" pageScale="1" pageWidth="850" pageHeight="1100" math="0" shadow="0">
      <root>
        <mxCell id="0" />
        <mxCell id="1" parent="0" />
        <mxCell id="6j2NXDCQ-nHp91OjlaAx-4" style="edgeStyle=orthogonalEdgeStyle;rounded=0;orthogonalLoop=1;jettySize=auto;html=1;" edge="1" parent="1" source="6j2NXDCQ-nHp91OjlaAx-1">
          <mxGeometry relative="1" as="geometry">
            <mxPoint x="414" y="340" as="targetPoint" />
          </mxGeometry>
        </mxCell>
        <mxCell id="6j2NXDCQ-nHp91OjlaAx-1" value="&lt;div&gt;print 1.25 * (4 95 + 7 * 160)&lt;/div&gt;" style="rounded=0;whiteSpace=wrap;html=1;" vertex="1" parent="1">
          <mxGeometry x="284" y="200" width="260" height="60" as="geometry" />
        </mxCell>
        <mxCell id="6j2NXDCQ-nHp91OjlaAx-3" style="edgeStyle=orthogonalEdgeStyle;rounded=0;orthogonalLoop=1;jettySize=auto;html=1;entryX=0.5;entryY=0;entryDx=0;entryDy=0;" edge="1" parent="1" source="6j2NXDCQ-nHp91OjlaAx-2" target="6j2NXDCQ-nHp91OjlaAx-1">
          <mxGeometry relative="1" as="geometry" />
        </mxCell>
        <mxCell id="6j2NXDCQ-nHp91OjlaAx-2" value="Start" style="ellipse;whiteSpace=wrap;html=1;" vertex="1" parent="1">
          <mxGeometry x="354" y="40" width="120" height="80" as="geometry" />
        </mxCell>
        <mxCell id="6j2NXDCQ-nHp91OjlaAx-5" value="&lt;div&gt;Stop&lt;/div&gt;" style="ellipse;whiteSpace=wrap;html=1;" vertex="1" parent="1">
          <mxGeometry x="354" y="340" width="120" height="80" as="geometry" />
        </mxCell>
      </root>
    </mxGraphModel>
  </diagram>
</mxfile>
